<svg xmlns="http://www.w3.org/2000/svg" style="display:none;">
  <symbol id="fa-network" viewBox="0 0 512 512"><!--! Font Awesome Free 7.2.0 by @fontawesome - https://fontawesome.com License - https://fontawesome.com/license/free (Icons: CC BY 4.0, Fonts: SIL OFL 1.1, Code: MIT License) Copyright 2026 Fonticons, Inc. --><path fill="currentColor" d="M0 80C0 53.5 21.5 32 48 32l96 0c26.5 0 48 21.5 48 48l0 16 128 0 0-16c0-26.5 21.5-48 48-48l96 0c26.5 0 48 21.5 48 48l0 96c0 26.5-21.5 48-48 48l-96 0c-26.5 0-48-21.5-48-48l0-16-128 0 0 16c0 7.3-1.7 14.3-4.6 20.5l68.6 91.5 80 0c26.5 0 48 21.5 48 48l0 96c0 26.5-21.5 48-48 48l-96 0c-26.5 0-48-21.5-48-48l0-96c0-7.3 1.7-14.3 4.6-20.5L128 224 48 224c-26.5 0-48-21.5-48-48L0 80z"/></symbol>
  <symbol id="fa-connections" viewBox="0 0 640 512"><!--! Font Awesome Free 7.2.0 by @fontawesome - https://fontawesome.com License - https://fontawesome.com/license/free (Icons: CC BY 4.0, Fonts: SIL OFL 1.1, Code: MIT License) Copyright 2026 Fonticons, Inc. --><path fill="currentColor" d="M320 16a104 104 0 1 1 0 208 104 104 0 1 1 0-208zM96 88a72 72 0 1 1 0 144 72 72 0 1 1 0-144zM0 416c0-70.7 57.3-128 128-128 12.8 0 25.2 1.9 36.9 5.4-32.9 36.8-52.9 85.4-52.9 138.6l0 16c0 11.4 2.4 22.2 6.7 32L32 480c-17.7 0-32-14.3-32-32l0-32zm521.3 64c4.3-9.8 6.7-20.6 6.7-32l0-16c0-53.2-20-101.8-52.9-138.6 11.7-3.5 24.1-5.4 36.9-5.4 70.7 0 128 57.3 128 128l0 32c0 17.7-14.3 32-32 32l-86.7 0zM472 160a72 72 0 1 1 144 0 72 72 0 1 1 -144 0zM160 432c0-88.4 71.6-160 160-160s160 71.6 160 160l0 16c0 17.7-14.3 32-32 32l-256 0c-17.7 0-32-14.3-32-32l0-16z"/></symbol>
  <symbol id="fa-cube" viewBox="0 0 512 512"><!--! Font Awesome Free 7.2.0 by @fontawesome - https://fontawesome.com License - https://fontawesome.com/license/free (Icons: CC BY 4.0, Fonts: SIL OFL 1.1, Code: MIT License) Copyright 2026 Fonticons, Inc. --><path fill="currentColor" d="M224.3-2.5c19.8-11.4 44.2-11.4 64 0L464.2 99c19.8 11.4 32 32.6 32 55.4l0 203c0 22.9-12.2 44-32 55.4L288.3 514.5c-19.8 11.4-44.2 11.4-64 0L48.5 413c-19.8-11.4-32-32.6-32-55.4l0-203c0-22.9 12.2-44 32-55.4L224.3-2.5zm207.8 360l0-166.1-143.8 83 0 166.1 143.8-83z"/></symbol>
  <symbol id="fa-clock" viewBox="0 0 512 512"><!--! Font Awesome Free 7.2.0 by @fontawesome - https://fontawesome.com License - https://fontawesome.com/license/free (Icons: CC BY 4.0, Fonts: SIL OFL 1.1, Code: MIT License) Copyright 2026 Fonticons, Inc. --><path fill="currentColor" d="M256 0a256 256 0 1 1 0 512 256 256 0 1 1 0-512zM232 120l0 136c0 8 4 15.5 10.7 20l96 64c11 7.4 25.9 4.4 33.3-6.7s4.4-25.9-6.7-33.3L280 243.2 280 120c0-13.3-10.7-24-24-24s-24 10.7-24 24z"/></symbol>
  <symbol id="fa-bolt" viewBox="0 0 448 512"><!--! Font Awesome Free 7.2.0 by @fontawesome - https://fontawesome.com License - https://fontawesome.com/license/free (Icons: CC BY 4.0, Fonts: SIL OFL 1.1, Code: MIT License) Copyright 2026 Fonticons, Inc. --><path fill="currentColor" d="M338.8-9.9c11.9 8.6 16.3 24.2 10.9 37.8L271.3 224 416 224c13.5 0 25.5 8.4 30.1 21.1s.7 26.9-9.6 35.5l-288 240c-11.3 9.4-27.4 9.9-39.3 1.3s-16.3-24.2-10.9-37.8L176.7 288 32 288c-13.5 0-25.5-8.4-30.1-21.1s-.7-26.9 9.6-35.5l288-240c11.3-9.4 27.4-9.9 39.3-1.3z"/></symbol>
  <symbol id="fa-gauge" viewBox="0 0 512 512"><!--! Font Awesome Free 7.2.0 by @fontawesome - https://fontawesome.com License - https://fontawesome.com/license/free (Icons: CC BY 4.0, Fonts: SIL OFL 1.1, Code: MIT License) Copyright 2026 Fonticons, Inc. --><path fill="currentColor" d="M0 256a256 256 0 1 1 512 0 256 256 0 1 1 -512 0zM288 96a32 32 0 1 0 -64 0 32 32 0 1 0 64 0zM256 416c35.3 0 64-28.7 64-64 0-16.2-6-31.1-16-42.3l69.5-138.9c5.9-11.9 1.1-26.3-10.7-32.2s-26.3-1.1-32.2 10.7L261.1 288.2c-1.7-.1-3.4-.2-5.1-.2-35.3 0-64 28.7-64 64s28.7 64 64 64zM176 144a32 32 0 1 0 -64 0 32 32 0 1 0 64 0zM96 288a32 32 0 1 0 0-64 32 32 0 1 0 0 64zm352-32a32 32 0 1 0 -64 0 32 32 0 1 0 64 0z"/></symbol>
  <symbol id="fa-social" viewBox="0 0 512 512"><!--! Font Awesome Free 7.2.0 by @fontawesome - https://fontawesome.com License - https://fontawesome.com/license/free (Icons: CC BY 4.0, Fonts: SIL OFL 1.1, Code: MIT License) Copyright 2026 Fonticons, Inc. --><path fill="currentColor" d="M384 192c53 0 96-43 96-96s-43-96-96-96-96 43-96 96c0 5.4 .5 10.8 1.3 16L159.6 184.1c-16.9-15-39.2-24.1-63.6-24.1-53 0-96 43-96 96s43 96 96 96c24.4 0 46.6-9.1 63.6-24.1L289.3 400c-.9 5.2-1.3 10.5-1.3 16 0 53 43 96 96 96s96-43 96-96-43-96-96-96c-24.4 0-46.6 9.1-63.6 24.1L190.7 272c.9-5.2 1.3-10.5 1.3-16s-.5-10.8-1.3-16l129.7-72.1c16.9 15 39.2 24.1 63.6 24.1z"/></symbol>
  <symbol id="fa-chart" viewBox="0 0 512 512"><!--! Font Awesome Free 7.2.0 by @fontawesome - https://fontawesome.com License - https://fontawesome.com/license/free (Icons: CC BY 4.0, Fonts: SIL OFL 1.1, Code: MIT License) Copyright 2026 Fonticons, Inc. --><path fill="currentColor" d="M64 64c0-17.7-14.3-32-32-32S0 46.3 0 64L0 400c0 44.2 35.8 80 80 80l400 0c17.7 0 32-14.3 32-32s-14.3-32-32-32L80 416c-8.8 0-16-7.2-16-16L64 64zm406.6 86.6c12.5-12.5 12.5-32.8 0-45.3s-32.8-12.5-45.3 0L320 210.7 262.6 153.4c-12.5-12.5-32.8-12.5-45.3 0l-96 96c-12.5 12.5-12.5 32.8 0 45.3s32.8 12.5 45.3 0l73.4-73.4 57.4 57.4c12.5 12.5 32.8 12.5 45.3 0l128-128z"/></symbol>
  <symbol id="fa-profile" viewBox="0 0 448 512"><!--! Font Awesome Free 7.2.0 by @fontawesome - https://fontawesome.com License - https://fontawesome.com/license/free (Icons: CC BY 4.0, Fonts: SIL OFL 1.1, Code: MIT License) Copyright 2026 Fonticons, Inc. --><path fill="currentColor" d="M224 248a120 120 0 1 0 0-240 120 120 0 1 0 0 240zm-29.7 56C95.8 304 16 383.8 16 482.3 16 498.7 29.3 512 45.7 512l356.6 0c16.4 0 29.7-13.3 29.7-29.7 0-98.5-79.8-178.3-178.3-178.3l-59.4 0z"/></symbol>
  <symbol id="fa-coins" viewBox="0 0 512 512"><!--! Font Awesome Free 7.2.0 by @fontawesome - https://fontawesome.com License - https://fontawesome.com/license/free (Icons: CC BY 4.0, Fonts: SIL OFL 1.1, Code: MIT License) Copyright 2026 Fonticons, Inc. --><path fill="currentColor" d="M128 96l0-16c0-44.2 86-80 192-80S512 35.8 512 80l0 16c0 30.6-41.3 57.2-102 70.7-2.4-2.8-4.9-5.5-7.4-8-15.5-15.3-35.5-26.9-56.4-35.5-41.9-17.5-96.5-27.1-154.2-27.1-21.9 0-43.3 1.4-63.8 4.1-.2-1.3-.2-2.7-.2-4.1zM432 353l0-46.2c15.1-3.9 29.3-8.5 42.2-13.9 13.2-5.5 26.1-12.2 37.8-20.3l0 15.4c0 26.8-31.5 50.5-80 65zm0-96l0-33c0-4.5-.4-8.8-1-13 15.5-3.9 30-8.6 43.2-14.2s26.1-12.2 37.8-20.3l0 15.4c0 26.8-31.5 50.5-80 65zM0 240l0-16c0-44.2 86-80 192-80s192 35.8 192 80l0 16c0 44.2-86 80-192 80S0 284.2 0 240zm384 96c0 44.2-86 80-192 80S0 380.2 0 336l0-15.4c11.6 8.1 24.5 14.7 37.8 20.3 41.9 17.5 96.5 27.1 154.2 27.1s112.3-9.7 154.2-27.1c13.2-5.5 26.1-12.2 37.8-20.3l0 15.4zm0 80.6l0 15.4c0 44.2-86 80-192 80S0 476.2 0 432l0-15.4c11.6 8.1 24.5 14.7 37.8 20.3 41.9 17.5 96.5 27.1 154.2 27.1s112.3-9.7 154.2-27.1c13.2-5.5 26.1-12.2 37.8-20.3z"/></symbol>
  <symbol id="fa-weight" viewBox="0 0 512 512"><!--! Font Awesome Free 7.2.0 by @fontawesome - https://fontawesome.com License - https://fontawesome.com/license/free (Icons: CC BY 4.0, Fonts: SIL OFL 1.1, Code: MIT License) Copyright 2026 Fonticons, Inc. --><path fill="currentColor" d="M224 96a32 32 0 1 1 64 0 32 32 0 1 1 -64 0zm122.5 32c3.5-10 5.5-20.8 5.5-32 0-53-43-96-96-96s-96 43-96 96c0 11.2 1.9 22 5.5 32l-21.8 0c-28.3 0-53.2 18.5-61.3 45.6L2.4 440.2C.8 445.4 0 450.8 0 456.2 0 487 25 512 55.8 512l400.4 0c30.8 0 55.8-25 55.8-55.8 0-5.4-.8-10.8-2.4-16l-80-266.5c-8.1-27.1-33-45.6-61.3-45.6l-21.8 0z"/></symbol>
  <symbol id="fa-txs" viewBox="0 0 576 512"><!--! Font Awesome Free 7.2.0 by @fontawesome - https://fontawesome.com License - https://fontawesome.com/license/free (Icons: CC BY 4.0, Fonts: SIL OFL 1.1, Code: MIT License) Copyright 2026 Fonticons, Inc. --><path fill="currentColor" d="M470.6 374.6l96-96c12.5-12.5 12.5-32.8 0-45.3l-96-96c-12.5-12.5-32.8-12.5-45.3 0s-12.5 32.8 0 45.3l41.4 41.4-357.5 0 41.4-41.4c12.5-12.5 12.5-32.8 0-45.3s-32.8-12.5-45.3 0l-96 96c-6 6-9.4 14.1-9.4 22.6s3.4 16.6 9.4 22.6l96 96c12.5 12.5 32.8 12.5 45.3 0s12.5-32.8 0-45.3l-41.4-41.4 357.5 0-41.4 41.4c-12.5 12.5-12.5 32.8 0 45.3s32.8 12.5 45.3 0z"/></symbol>
  <symbol id="fa-flame" viewBox="0 0 384 512"><!--! Font Awesome Free 7.2.0 by @fontawesome - https://fontawesome.com License - https://fontawesome.com/license/free (Icons: CC BY 4.0, Fonts: SIL OFL 1.1, Code: MIT License) Copyright 2026 Fonticons, Inc. --><path fill="currentColor" d="M153.6 29.9l16-21.3C173.6 3.2 180 0 186.7 0 198.4 0 208 9.6 208 21.3l0 22.1c0 13.1 5.4 25.7 14.9 34.7L307.6 159C356.4 205.6 384 270.2 384 337.7 384 434 306 512 209.7 512L192 512C86 512 0 426 0 320l0-3.8c0-48.8 19.4-95.6 53.9-130.1l3.5-3.5c4.2-4.2 10-6.6 16-6.6 12.5 0 22.6 10.1 22.6 22.6L96 288c0 35.3 28.7 64 64 64s64-28.7 64-64l0-3.9c0-18-7.2-35.3-19.9-48l-38.6-38.6c-24-24-37.5-56.7-37.5-90.7 0-27.7 9-54.8 25.6-76.9z"/></symbol>
  <symbol id="fa-x" viewBox="0 0 448 512"><!--! Font Awesome Free 7.2.0 by @fontawesome - https://fontawesome.com License - https://fontawesome.com/license/free (Icons: CC BY 4.0, Fonts: SIL OFL 1.1, Code: MIT License) Copyright 2026 Fonticons, Inc. --><path fill="currentColor" d="M357.2 48L427.8 48 273.6 224.2 455 464 313 464 201.7 318.6 74.5 464 3.8 464 168.7 275.5-5.2 48 140.4 48 240.9 180.9 357.2 48zM332.4 421.8l39.1 0-252.4-333.8-42 0 255.3 333.8z"/></symbol>
  <symbol id="fa-up" viewBox="0 0 384 512"><!--! Font Awesome Free 7.2.0 by @fontawesome - https://fontawesome.com License - https://fontawesome.com/license/free (Icons: CC BY 4.0, Fonts: SIL OFL 1.1, Code: MIT License) Copyright 2026 Fonticons, Inc. --><path fill="currentColor" d="M214.6 9.4c-12.5-12.5-32.8-12.5-45.3 0l-160 160c-12.5 12.5-12.5 32.8 0 45.3s32.8 12.5 45.3 0L160 109.3 160 480c0 17.7 14.3 32 32 32s32-14.3 32-32l0-370.7 105.4 105.4c12.5 12.5 32.8 12.5 45.3 0s12.5-32.8 0-45.3l-160-160z"/></symbol>
  <symbol id="fa-down" viewBox="0 0 384 512"><!--! Font Awesome Free 7.2.0 by @fontawesome - https://fontawesome.com License - https://fontawesome.com/license/free (Icons: CC BY 4.0, Fonts: SIL OFL 1.1, Code: MIT License) Copyright 2026 Fonticons, Inc. --><path fill="currentColor" d="M169.4 502.6c12.5 12.5 32.8 12.5 45.3 0l160-160c12.5-12.5 12.5-32.8 0-45.3s-32.8-12.5-45.3 0L224 402.7 224 32c0-17.7-14.3-32-32-32s-32 14.3-32 32l0 370.7-105.4-105.4c-12.5-12.5-32.8-12.5-45.3 0s-12.5 32.8 0 45.3l160 160z"/></symbol>
  <symbol id="fa-minus" viewBox="0 0 448 512"><!--! Font Awesome Free 7.2.0 by @fontawesome - https://fontawesome.com License - https://fontawesome.com/license/free (Icons: CC BY 4.0, Fonts: SIL OFL 1.1, Code: MIT License) Copyright 2026 Fonticons, Inc. --><path fill="currentColor" d="M0 256c0-17.7 14.3-32 32-32l384 0c17.7 0 32 14.3 32 32s-14.3 32-32 32L32 288c-17.7 0-32-14.3-32-32z"/></symbol>
  <symbol id="fa-external" viewBox="0 0 512 512"><!--! Font Awesome Free 7.2.0 by @fontawesome - https://fontawesome.com License - https://fontawesome.com/license/free (Icons: CC BY 4.0, Fonts: SIL OFL 1.1, Code: MIT License) Copyright 2026 Fonticons, Inc. --><path fill="currentColor" d="M290.4 19.8C295.4 7.8 307.1 0 320 0L480 0c17.7 0 32 14.3 32 32l0 160c0 12.9-7.8 24.6-19.8 29.6s-25.7 2.2-34.9-6.9L400 157.3 246.6 310.6c-12.5 12.5-32.8 12.5-45.3 0s-12.5-32.8 0-45.3L354.7 112 297.4 54.6c-9.2-9.2-11.9-22.9-6.9-34.9zM0 176c0-44.2 35.8-80 80-80l80 0c17.7 0 32 14.3 32 32s-14.3 32-32 32l-80 0c-8.8 0-16 7.2-16 16l0 256c0 8.8 7.2 16 16 16l256 0c8.8 0 16-7.2 16-16l0-80c0-17.7 14.3-32 32-32s32 14.3 32 32l0 80c0 44.2-35.8 80-80 80L80 512c-44.2 0-80-35.8-80-80L0 176z"/></symbol>
  <symbol id="fa-prev" viewBox="0 0 320 512"><!--! Font Awesome Free 7.2.0 by @fontawesome - https://fontawesome.com License - https://fontawesome.com/license/free (Icons: CC BY 4.0, Fonts: SIL OFL 1.1, Code: MIT License) Copyright 2026 Fonticons, Inc. --><path fill="currentColor" d="M9.4 233.4c-12.5 12.5-12.5 32.8 0 45.3l192 192c12.5 12.5 32.8 12.5 45.3 0s12.5-32.8 0-45.3L77.3 256 246.6 86.6c12.5-12.5 12.5-32.8 0-45.3s-32.8-12.5-45.3 0l-192 192z"/></symbol>
  <symbol id="fa-next" viewBox="0 0 320 512"><!--! Font Awesome Free 7.2.0 by @fontawesome - https://fontawesome.com License - https://fontawesome.com/license/free (Icons: CC BY 4.0, Fonts: SIL OFL 1.1, Code: MIT License) Copyright 2026 Fonticons, Inc. --><path fill="currentColor" d="M311.1 233.4c12.5 12.5 12.5 32.8 0 45.3l-192 192c-12.5 12.5-32.8 12.5-45.3 0s-12.5-32.8 0-45.3L243.2 256 73.9 86.6c-12.5-12.5-12.5-32.8 0-45.3s32.8-12.5 45.3 0l192 192z"/></symbol>
  <symbol id="fa-fallback" viewBox="0 0 512 512"><!--! Font Awesome Free 7.2.0 by @fontawesome - https://fontawesome.com License - https://fontawesome.com/license/free (Icons: CC BY 4.0, Fonts: SIL OFL 1.1, Code: MIT License) Copyright 2026 Fonticons, Inc. --><path fill="currentColor" d="M256 512a256 256 0 1 0 0-512 256 256 0 1 0 0 512zm0-336c-17.7 0-32 14.3-32 32 0 13.3-10.7 24-24 24s-24-10.7-24-24c0-44.2 35.8-80 80-80s80 35.8 80 80c0 47.2-36 67.2-56 74.5l0 3.8c0 13.3-10.7 24-24 24s-24-10.7-24-24l0-8.1c0-20.5 14.8-35.2 30.1-40.2 6.4-2.1 13.2-5.5 18.2-10.3 4.3-4.2 7.7-10 7.7-19.6 0-17.7-14.3-32-32-32zM224 368a32 32 0 1 1 64 0 32 32 0 1 1 -64 0z"/></symbol>
</svg>
